# 3ds Max Wavefront OBJ Exporter v0.97b - (c)2007 guruware
# File Created: 31.10.2017 16:25:59

mtllib D10_LowPoly.mtl

#
# object D022
#

v  0.5134 0.0587 -8.2862
v  -0.0000 0.4465 -8.2862
v  0.1586 0.0587 -8.7744
v  0.4153 -0.0587 -8.5880
v  -0.4153 0.0587 -8.5880
v  -0.1586 -0.0587 -8.7744
v  -0.4153 0.0587 -7.9845
v  -0.5134 -0.0587 -8.2862
v  0.1586 0.0587 -7.7980
v  -0.1435 -0.0587 -7.8446
v  0.4153 -0.0587 -7.9845
v  -0.0000 -0.4465 -8.2862
# 12 vertices

vn 0.8359 -0.5488 -0.0000
vn 0.2583 -0.5488 -0.7950
vn -0.6763 -0.5488 -0.4913
vn -0.6956 -0.5106 0.5054
vn 0.2583 -0.5488 0.7950
vn 0.6763 0.5488 -0.4913
vn -0.2583 0.5488 -0.7950
vn -0.8345 0.5479 0.0576
vn -0.3127 0.5479 0.7759
vn 0.6763 0.5488 0.4913
# 10 vertex normals

vt 0.5418 0.9110 0.0000
vt 0.4146 0.6367 0.0000
vt 0.3080 0.9213 0.0000
vt 0.4289 0.9946 0.0000
vt 0.1379 0.7632 0.0000
vt 0.1691 0.9002 0.0000
vt 0.1286 0.5310 0.0000
vt 0.0545 0.6502 0.0000
vt 0.2875 0.3590 0.0000
vt 0.1561 0.3970 0.0000
vt 0.5204 0.3506 0.0000
vt 0.4010 0.2756 0.0000
vt 0.9051 0.4721 0.0000
vt 0.9804 0.3538 0.0000
vt 0.8980 0.2403 0.0000
vt 0.6210 0.3653 0.0000
vt 0.8680 0.1027 0.0000
vt 0.7292 0.0801 0.0000
vt 0.6097 0.0032 0.0000
vt 0.5062 0.0946 0.0000
vt 0.5251 0.6416 0.0000
vt 0.6336 0.7255 0.0000
vt 0.7472 0.6417 0.0000
vt 0.8836 0.6104 0.0000
# 24 texture coords

o D022
g D022
usemtl 01___Default
s 1
f 4/4/1 3/3/1 2/2/1 1/1/1 
s 2
f 6/6/2 5/5/2 2/2/2 3/3/2 
s 4
f 8/8/3 7/7/3 2/2/3 5/5/3 
s 8
f 10/10/4 9/9/4 2/2/4 7/7/4 
s 16
f 11/12/5 1/11/5 2/2/5 9/9/5 
s 4
f 12/16/6 6/15/6 3/14/6 4/13/6 
s 1
f 12/16/7 8/18/7 5/17/7 6/15/7 
s 2
f 12/16/8 10/20/8 7/19/8 8/18/8 
s 32
f 12/16/9 11/23/9 9/22/9 10/21/9 
s 8
f 12/16/10 4/13/10 1/24/10 11/23/10 
# 10 polygons

